<?xml version="1.0" standalone="no"?>
<!DOCTYPE svg PUBLIC "-//W3C//DTD SVG 20010904//EN"
 "http://www.w3.org/TR/2001/REC-SVG-20010904/DTD/svg10.dtd">
<svg version="1.0" xmlns="http://www.w3.org/2000/svg"
 width="4613.000000pt" height="1159.000000pt" viewBox="0 0 4613.000000 1159.000000"
 preserveAspectRatio="xMidYMid meet">

<g transform="translate(0.000000,1159.000000) scale(0.100000,-0.100000)"
fill="#000000" stroke="none">
<path d="M940 9090 l0 -1060 -470 0 -470 0 0 -1320 0 -1320 3680 0 3680 0 0
-45 0 -45 1840 0 1840 0 0 50 0 50 1605 0 1605 0 0 1315 0 1315 360 0 360 0 0
-1380 0 -1380 1715 0 c1518 0 1715 2 1715 15 0 13 211 15 1840 15 l1840 0 0
50 0 50 1840 0 1840 0 0 -50 0 -50 1650 0 1650 0 0 1365 0 1365 390 0 390 0 0
-1363 0 -1364 2462 -6 c1354 -4 2920 -7 3480 -7 l1018 0 0 50 0 50 1840 0
1840 0 0 -45 0 -45 2825 0 2825 0 0 843 c0 463 -3 1547 -7 2410 l-6 1567
-2819 0 -2818 0 0 -42 0 -41 -2762 6 c-1519 4 -3175 7 -3680 7 l-918 0 0 50 0
50 -3680 0 -3680 0 0 -55 0 -55 -1840 0 -1840 0 0 40 0 40 -1840 0 -1840 0 0
-40 0 -40 -3495 0 -3495 0 0 -1005 0 -1005 -375 0 -375 0 0 1045 0 1045 -1650
0 -1650 0 0 -40 0 -40 -1840 0 -1840 0 0 55 0 55 -1370 0 -1370 0 0 -1060z"/>
<path d="M7360 3160 l0 -40 -1335 0 -1335 0 0 -1535 0 -1535 2755 0 2755 0 0
430 0 430 -370 0 -370 0 0 1145 0 1145 -1050 0 -1050 0 0 -40z"/>
<path d="M11350 1600 l0 -1600 1410 0 1410 0 0 455 0 455 420 0 420 0 0 -430
0 -430 1605 0 1605 0 0 430 0 430 -210 0 -210 0 0 1145 0 1145 -3225 0 -3225
0 0 -1600z"/>
<path d="M25760 3190 c0 -7 -1225 -10 -3655 -10 l-3655 0 0 -1590 0 -1590
3655 0 3655 0 0 25 0 25 1840 0 1840 0 0 -25 0 -25 1840 0 1840 0 0 25 0 25
1840 0 1840 0 0 -25 0 -25 1570 0 1570 0 0 455 0 455 440 0 440 0 0 -420 0
-420 330 0 330 0 0 420 0 420 -210 0 -210 0 0 1020 0 1020 -290 0 -290 0 0
115 0 115 -1785 0 -1785 0 0 -1135 0 -1135 -300 0 -300 0 0 1105 0 1105 -1595
0 -1595 0 0 30 0 30 -1840 0 c-1220 0 -1840 3 -1840 10 0 7 -620 10 -1840 10
-1220 0 -1840 -3 -1840 -10z"/>
</g>
</svg>
